<?xml version="1.0" encoding="UTF-8"?><!DOCTYPE svg PUBLIC "-//W3C//DTD SVG 1.1//EN" "http://www.w3.org/Graphics/SVG/1.1/DTD/svg11.dtd"><svg xmlns="http://www.w3.org/2000/svg"><symbol id="menu" viewBox="0 0 18 18"><rect x="0" y="2" width="18" height="2" fill="#4c4c4c"/><rect x="0" y="8" width="18" height="2" fill="#4c4c4c"/><rect x="0" y="14" width="18" height="2" fill="#4c4c4c"/></symbol><symbol id="menu_close" viewBox="0 0 20 20"><path fill="none" stroke="#4c4c4c" stroke-width="2" d="M16,16 L4,4"/><path fill="none" stroke="#4c4c4c" stroke-width="2" d="M16,4 L4,16"/></symbol><symbol id="user" viewBox="0, 0, 20, 20"><path d="m20 16.627c0-2.9423-0.75342-7.4608-4.915-7.4608-0.44034 0-2.301 1.8095-5.0856 1.8095-2.7833 0-4.644-1.8095-5.0843-1.8095-4.1616 0-4.915 4.5185-4.915 7.4608 0 2.1093 1.5348 3.3728 3.7926 3.3728h12.415c2.2577 0 3.7926-1.2635 3.7926-3.3728zm-4.546-11.628c0-2.7603-2.4423-4.9991-5.4547-4.9991-3.0111 0-5.4534 2.2388-5.4534 4.9991 0 2.7603 2.4423 5.0003 5.4534 5.0003 3.0124 0 5.4547-2.24 5.4547-5.0003z" fill="#369"/></symbol><symbol id="help" viewBox="0, 0, 20, 20"><path d="m11.667 16.249c0 0.2345-0.182 0.4165-0.4165 0.4165h-2.5001c-0.2345 0-0.4165-0.182-0.4165-0.4165v-2.5001c0-0.23333 0.182-0.4165 0.4165-0.4165h2.5001c0.2345 0 0.4165 0.18316 0.4165 0.4165zm3.3331-8.7499c0 1.9798-1.3533 2.7346-2.3426 3.2946-0.6125 0.35116-0.99049 0.98932-0.99049 1.2892 0 0.2345-0.182 0.4165-0.4165 0.4165h-2.5001c-0.2345 0-0.4165-0.182-0.4165-0.4165v-0.469c0-1.2635 1.2635-2.3438 2.1875-2.7603 0.79449-0.36516 1.1457-0.70349 1.1457-1.3802 0-0.57283-0.76766-1.1072-1.6007-1.1072-0.469 0-0.89949 0.15633-1.12 0.31266-0.24733 0.182-0.50866 0.4165-1.12 1.1982-0.078166 0.10383-0.20883 0.15633-0.3255 0.15633-0.090999 0-0.182-0.025666-0.24733-0.078166l-1.7185-1.302c-0.16917-0.13067-0.22166-0.36516-0.105-0.54716 1.12-1.862 2.709-2.7731 4.8311-2.7731 2.24 0 4.739 1.7838 4.739 4.1661zm5.0003 2.5001c0-5.5206-4.4788-9.9994-9.9994-9.9994-5.5206 0-10.001 4.4788-10.001 9.9994 0 5.5206 4.48 10.001 10.001 10.001 5.5206 0 9.9994-4.48 9.9994-10.001z" fill="#369"/></symbol><symbol viewBox="0 0 20 20" id="plus-circle"><rect x="3" y="3" width="18" height="18" rx="2" ry="2"></rect><line x1="12" y1="8" x2="12" y2="16"></line><line x1="8" y1="12" x2="16" y2="12"></line></symbol></svg>
